<mxfile host="app.diagrams.net" modified="2023-11-29T22:13:23.078Z" agent="Mozilla/5.0 (Macintosh; Intel Mac OS X 10_15_7) AppleWebKit/537.36 (KHTML, like Gecko) Chrome/119.0.0.0 Safari/537.36" etag="H5Fzsx_2C-081fveqLBr" version="22.1.5" type="github">
  <diagram name="Page-1" id="gzVRXibs-2J19YMInExY">
    <mxGraphModel dx="1275" dy="1135" grid="1" gridSize="10" guides="1" tooltips="1" connect="1" arrows="1" fold="1" page="1" pageScale="1" pageWidth="850" pageHeight="1100" math="0" shadow="0">
      <root>
        <mxCell id="0" />
        <mxCell id="1" parent="0" />
        <mxCell id="BSNR5_jXF32KmeUZUF7c-1" value="&lt;b&gt;&lt;font style=&quot;font-size: 16px;&quot;&gt;Internet&lt;br&gt;&amp;amp; SIP Trunks&lt;br&gt;&lt;/font&gt;&lt;/b&gt;" style="ellipse;shape=cloud;whiteSpace=wrap;html=1;" parent="1" vertex="1">
          <mxGeometry x="70" y="20" width="160" height="80" as="geometry" />
        </mxCell>
        <mxCell id="BSNR5_jXF32KmeUZUF7c-2" value="Network Switch&lt;br&gt;" style="image;html=1;image=img/lib/clip_art/networking/Switch_128x128.png" parent="1" vertex="1">
          <mxGeometry x="110" y="287" width="80" height="80" as="geometry" />
        </mxCell>
        <mxCell id="BSNR5_jXF32KmeUZUF7c-3" value="" style="endArrow=none;dashed=1;html=1;dashPattern=1 3;strokeWidth=5;rounded=0;entryX=0.55;entryY=0.95;entryDx=0;entryDy=0;entryPerimeter=0;fillColor=#0050ef;strokeColor=#001DBC;flowAnimation=1;" parent="1" source="BSNR5_jXF32KmeUZUF7c-23" target="BSNR5_jXF32KmeUZUF7c-1" edge="1">
          <mxGeometry width="50" height="50" relative="1" as="geometry">
            <mxPoint x="390" y="530" as="sourcePoint" />
            <mxPoint x="440" y="480" as="targetPoint" />
          </mxGeometry>
        </mxCell>
        <mxCell id="BSNR5_jXF32KmeUZUF7c-20" value="COX Fiber&lt;br&gt;75MB/25MB&amp;nbsp;" style="edgeLabel;html=1;align=center;verticalAlign=middle;resizable=0;points=[];" parent="BSNR5_jXF32KmeUZUF7c-3" vertex="1" connectable="0">
          <mxGeometry x="0.0138" y="-3" relative="1" as="geometry">
            <mxPoint as="offset" />
          </mxGeometry>
        </mxCell>
        <mxCell id="BSNR5_jXF32KmeUZUF7c-4" value="Phone" style="verticalLabelPosition=bottom;sketch=0;aspect=fixed;html=1;verticalAlign=top;strokeColor=none;align=center;outlineConnect=0;shape=mxgraph.citrix.ip_phone;" parent="1" vertex="1">
          <mxGeometry x="90" y="490" width="76.5" height="37" as="geometry" />
        </mxCell>
        <mxCell id="BSNR5_jXF32KmeUZUF7c-5" value="Computer/Laptop" style="image;points=[];aspect=fixed;html=1;align=center;shadow=0;dashed=0;image=img/lib/allied_telesis/computer_and_terminals/Personal_Computer_with_Server.svg;" parent="1" vertex="1">
          <mxGeometry x="220" y="477.3" width="62.400000000000006" height="62.400000000000006" as="geometry" />
        </mxCell>
        <mxCell id="BSNR5_jXF32KmeUZUF7c-6" value="WiFi Access Point" style="html=1;image=img/lib/allied_telesis/wireless/Access_Point_Indoor.svg;verticalLabelPosition=bottom;labelBackgroundColor=default;verticalAlign=top;strokeWidth=2;strokeColor=#0080F0;shadow=0;dashed=0;shape=image;pointerEvents=1;points=[];aspect=fixed;" parent="1" vertex="1">
          <mxGeometry x="300" y="317" width="77.6" height="50" as="geometry" />
        </mxCell>
        <mxCell id="BSNR5_jXF32KmeUZUF7c-7" value="Tablet" style="image;points=[];aspect=fixed;html=1;align=center;shadow=0;dashed=0;image=img/lib/allied_telesis/computer_and_terminals/Tablet.svg;" parent="1" vertex="1">
          <mxGeometry x="480" y="298.5" width="27" height="57" as="geometry" />
        </mxCell>
        <mxCell id="BSNR5_jXF32KmeUZUF7c-8" value="Cell Phone&lt;br&gt;" style="verticalLabelPosition=bottom;sketch=0;aspect=fixed;html=1;verticalAlign=top;strokeColor=none;align=center;outlineConnect=0;shape=mxgraph.citrix.cell_phone;" parent="1" vertex="1">
          <mxGeometry x="440" y="470" width="25" height="60" as="geometry" />
        </mxCell>
        <mxCell id="BSNR5_jXF32KmeUZUF7c-9" value="" style="endArrow=none;dashed=1;html=1;dashPattern=1 3;strokeWidth=4;rounded=0;entryX=1;entryY=0.5;entryDx=0;entryDy=0;exitX=0;exitY=0.75;exitDx=0;exitDy=0;fillColor=#60a917;strokeColor=#2D7600;flowAnimation=1;" parent="1" source="BSNR5_jXF32KmeUZUF7c-6" target="BSNR5_jXF32KmeUZUF7c-2" edge="1">
          <mxGeometry width="50" height="50" relative="1" as="geometry">
            <mxPoint x="390" y="530" as="sourcePoint" />
            <mxPoint x="440" y="480" as="targetPoint" />
            <Array as="points" />
          </mxGeometry>
        </mxCell>
        <mxCell id="BSNR5_jXF32KmeUZUF7c-19" value="1GB" style="edgeLabel;html=1;align=center;verticalAlign=middle;resizable=0;points=[];" parent="BSNR5_jXF32KmeUZUF7c-9" vertex="1" connectable="0">
          <mxGeometry x="0.0588" y="-1" relative="1" as="geometry">
            <mxPoint as="offset" />
          </mxGeometry>
        </mxCell>
        <mxCell id="BSNR5_jXF32KmeUZUF7c-10" value="" style="endArrow=none;dashed=1;html=1;dashPattern=1 3;strokeWidth=4;rounded=0;entryX=0.478;entryY=0.625;entryDx=0;entryDy=0;fillColor=#60a917;strokeColor=#2D7600;flowAnimation=1;entryPerimeter=0;" parent="1" source="BSNR5_jXF32KmeUZUF7c-4" target="BSNR5_jXF32KmeUZUF7c-2" edge="1">
          <mxGeometry width="50" height="50" relative="1" as="geometry">
            <mxPoint x="282" y="280" as="sourcePoint" />
            <mxPoint x="170" y="270" as="targetPoint" />
          </mxGeometry>
        </mxCell>
        <mxCell id="BSNR5_jXF32KmeUZUF7c-17" value="1GB" style="edgeLabel;html=1;align=center;verticalAlign=middle;resizable=0;points=[];" parent="BSNR5_jXF32KmeUZUF7c-10" vertex="1" connectable="0">
          <mxGeometry x="-0.1095" y="1" relative="1" as="geometry">
            <mxPoint as="offset" />
          </mxGeometry>
        </mxCell>
        <mxCell id="BSNR5_jXF32KmeUZUF7c-11" value="" style="endArrow=none;dashed=1;html=1;dashPattern=1 3;strokeWidth=4;rounded=0;entryX=0.5;entryY=0.625;entryDx=0;entryDy=0;fillColor=#60a917;strokeColor=#2D7600;flowAnimation=1;entryPerimeter=0;" parent="1" source="BSNR5_jXF32KmeUZUF7c-5" target="BSNR5_jXF32KmeUZUF7c-2" edge="1">
          <mxGeometry width="50" height="50" relative="1" as="geometry">
            <mxPoint x="292" y="290" as="sourcePoint" />
            <mxPoint x="180" y="280" as="targetPoint" />
          </mxGeometry>
        </mxCell>
        <mxCell id="BSNR5_jXF32KmeUZUF7c-18" value="1GB" style="edgeLabel;html=1;align=center;verticalAlign=middle;resizable=0;points=[];" parent="BSNR5_jXF32KmeUZUF7c-11" vertex="1" connectable="0">
          <mxGeometry x="-0.2386" y="-4" relative="1" as="geometry">
            <mxPoint as="offset" />
          </mxGeometry>
        </mxCell>
        <mxCell id="BSNR5_jXF32KmeUZUF7c-12" value="" style="endArrow=none;dashed=1;html=1;dashPattern=1 3;strokeWidth=4;rounded=0;entryX=0.5;entryY=1;entryDx=0;entryDy=0;fillColor=#d80073;strokeColor=#A50040;flowAnimation=1;" parent="1" source="BSNR5_jXF32KmeUZUF7c-8" target="BSNR5_jXF32KmeUZUF7c-6" edge="1">
          <mxGeometry width="50" height="50" relative="1" as="geometry">
            <mxPoint x="302" y="300" as="sourcePoint" />
            <mxPoint x="190" y="290" as="targetPoint" />
          </mxGeometry>
        </mxCell>
        <mxCell id="BSNR5_jXF32KmeUZUF7c-13" value="" style="endArrow=none;dashed=1;html=1;dashPattern=1 3;strokeWidth=4;rounded=0;entryX=0.5;entryY=1;entryDx=0;entryDy=0;fillColor=#d80073;strokeColor=#A50040;flowAnimation=1;exitX=-0.074;exitY=0.447;exitDx=0;exitDy=0;exitPerimeter=0;" parent="1" source="BSNR5_jXF32KmeUZUF7c-7" target="BSNR5_jXF32KmeUZUF7c-6" edge="1">
          <mxGeometry width="50" height="50" relative="1" as="geometry">
            <mxPoint x="436" y="453" as="sourcePoint" />
            <mxPoint x="332" y="310" as="targetPoint" />
            <Array as="points" />
          </mxGeometry>
        </mxCell>
        <mxCell id="BSNR5_jXF32KmeUZUF7c-14" value="Computer/Laptop" style="image;points=[];aspect=fixed;html=1;align=center;shadow=0;dashed=0;image=img/lib/allied_telesis/computer_and_terminals/Personal_Computer_with_Server.svg;" parent="1" vertex="1">
          <mxGeometry x="98.80000000000001" y="630" width="62.400000000000006" height="62.400000000000006" as="geometry" />
        </mxCell>
        <mxCell id="BSNR5_jXF32KmeUZUF7c-15" value="" style="endArrow=none;dashed=1;html=1;dashPattern=1 3;strokeWidth=4;rounded=0;fillColor=#fa6800;strokeColor=#C73500;flowAnimation=1;exitX=0.452;exitY=0.024;exitDx=0;exitDy=0;exitPerimeter=0;" parent="1" source="BSNR5_jXF32KmeUZUF7c-14" target="BSNR5_jXF32KmeUZUF7c-4" edge="1">
          <mxGeometry width="50" height="50" relative="1" as="geometry">
            <mxPoint x="245" y="487" as="sourcePoint" />
            <mxPoint x="140" y="570" as="targetPoint" />
          </mxGeometry>
        </mxCell>
        <mxCell id="BSNR5_jXF32KmeUZUF7c-16" value="100MB" style="edgeLabel;html=1;align=center;verticalAlign=middle;resizable=0;points=[];" parent="BSNR5_jXF32KmeUZUF7c-15" vertex="1" connectable="0">
          <mxGeometry x="-0.3111" relative="1" as="geometry">
            <mxPoint as="offset" />
          </mxGeometry>
        </mxCell>
        <mxCell id="BSNR5_jXF32KmeUZUF7c-23" value="" style="image;html=1;image=img/lib/clip_art/networking/Router_128x128.png" parent="1" vertex="1">
          <mxGeometry x="230" y="170" width="80" height="80" as="geometry" />
        </mxCell>
        <mxCell id="BSNR5_jXF32KmeUZUF7c-24" value="" style="endArrow=none;dashed=1;html=1;dashPattern=1 3;strokeWidth=4;rounded=0;entryX=0.875;entryY=0.538;entryDx=0;entryDy=0;exitX=0;exitY=0.5;exitDx=0;exitDy=0;fillColor=#60a917;strokeColor=#2D7600;flowAnimation=1;entryPerimeter=0;" parent="1" source="BSNR5_jXF32KmeUZUF7c-23" target="BSNR5_jXF32KmeUZUF7c-2" edge="1">
          <mxGeometry width="50" height="50" relative="1" as="geometry">
            <mxPoint x="310" y="365" as="sourcePoint" />
            <mxPoint x="200" y="337" as="targetPoint" />
            <Array as="points" />
          </mxGeometry>
        </mxCell>
        <mxCell id="BSNR5_jXF32KmeUZUF7c-25" value="1GB" style="edgeLabel;html=1;align=center;verticalAlign=middle;resizable=0;points=[];" parent="BSNR5_jXF32KmeUZUF7c-24" vertex="1" connectable="0">
          <mxGeometry x="0.0588" y="-1" relative="1" as="geometry">
            <mxPoint as="offset" />
          </mxGeometry>
        </mxCell>
      </root>
    </mxGraphModel>
  </diagram>
</mxfile>
